<svg xmlns="http://www.w3.org/2000/svg" width="24" height="24" viewBox="0 0 24 24">
    <defs>
        <clipPath id="z7una">
            <path d="M6.32 17.65h6.112v6.111H6.32z"/>
        </clipPath>
        <clipPath id="z7unb">
            <path d="M17.39 17.65h6.111v6.111H17.39z"/>
        </clipPath>
        <clipPath id="z7unc">
            <path d="M0 .56h23.502v15.587H0z"/>
        </clipPath>
        <ref id="paramFill" param="color" default="blue"/>
    </defs>
    <g>
        <g>
            <g>
                <g/>
                <g clip-path="url(#z7una)">
                    <path fill="url(#paramFill)" d="M9.376 17.65a3.06 3.06 0 0 1 3.056 3.056 3.059 3.059 0 0 1-3.056 3.055 3.059 3.059 0 0 1-3.056-3.055 3.06 3.06 0 0 1 3.056-3.056m.005 4.447c.764 0 1.386-.622 1.386-1.386 0-.765-.622-1.387-1.386-1.387a1.387 1.387 0 0 0 0 2.772"/>
                </g>
            </g>
            <g>
                <g/>
                <g clip-path="url(#z7unb)">
                    <path fill="url(#paramFill)" d="M20.446 17.65a3.06 3.06 0 0 1 3.056 3.056 3.059 3.059 0 0 1-3.056 3.055 3.059 3.059 0 0 1-3.056-3.055 3.06 3.06 0 0 1 3.056-3.056m.005 4.447c.764 0 1.386-.622 1.386-1.386 0-.765-.622-1.387-1.386-1.387a1.388 1.388 0 0 0 0 2.772"/>
                </g>
            </g>
            <g>
                <g/>
                <g clip-path="url(#z7unc)">
                    <path fill="url(#paramFill)" d="M22.763 6.161c.422.05.739.407.739.831v5.285c0 1.862-1.368 3.87-3.578 3.87H7.704c-1.729 0-2.89-1.538-2.89-2.975V3.498L.59 2.198a.838.838 0 0 1 .493-1.6L5.897 2.08c.351.107.59.432.59.8v1.348zm-.936 1.575L6.487 5.914v7.258c0 .53.474 1.301 1.217 1.301h12.22c1.176 0 1.903-1.14 1.903-2.196z"/>
                </g>
            </g>
        </g>
    </g>
</svg>
